<svg width="515" height="445" viewBox="0 0 515 445" fill="none" xmlns="http://www.w3.org/2000/svg">
<path d="M488.752 6H25.2477C14.0652 6 5 13.7742 5 23.3641V422.636C5 432.226 14.0652 440 25.2477 440H488.752C499.935 440 509 432.226 509 422.636V23.3641C509 13.7742 499.935 6 488.752 6Z" fill="#CCE0D1" stroke="#231F20" stroke-width="10.1364" stroke-miterlimit="10"/>
<path d="M438.56 45H79.44C67.599 45 58 52.7843 58 62.3867V353.613C58 363.216 67.599 371 79.44 371H438.56C450.401 371 460 363.216 460 353.613V62.3867C460 52.7843 450.401 45 438.56 45Z" fill="#215DB8" stroke="#231F20" stroke-width="10.1364" stroke-miterlimit="10"/>
<path d="M91.2272 391.176H63.6418C60.6188 391.176 58.1682 393.627 58.1682 396.65V412.694C58.1682 415.717 60.6188 418.168 63.6418 418.168H91.2272C94.2502 418.168 96.7009 415.717 96.7009 412.694V396.65C96.7009 393.627 94.2502 391.176 91.2272 391.176Z" fill="#9AB5A0" stroke="#231F20" stroke-width="10.1364" stroke-miterlimit="10"/>
<path d="M139.216 422.251C147.797 422.251 154.753 415.295 154.753 406.714C154.753 398.132 147.797 391.176 139.216 391.176C130.635 391.176 123.678 398.132 123.678 406.714C123.678 415.295 130.635 422.251 139.216 422.251Z" fill="#EE323D" stroke="#231F20" stroke-width="10.1364" stroke-miterlimit="10"/>
<path d="M190.1 422.251C198.681 422.251 205.638 415.295 205.638 406.714C205.638 398.132 198.681 391.176 190.1 391.176C181.519 391.176 174.563 398.132 174.563 406.714C174.563 415.295 181.519 422.251 190.1 422.251Z" fill="#2EB335" stroke="black" stroke-width="10.1364" stroke-miterlimit="10"/>
</svg>
