<svg width="325" height="309" viewBox="0 0 325 309" fill="none" xmlns="http://www.w3.org/2000/svg">
<mask id="mask0_11_86" style="mask-type:alpha" maskUnits="userSpaceOnUse" x="0" y="0" width="325" height="309">
<rect width="325" height="309" fill="#D9D9D9"/>
</mask>
<g mask="url(#mask0_11_86)">
<g filter="url(#filter0_b_11_86)">
<path d="M0 -233.564C0 -247.06 10.9402 -258 24.4356 -258H232.643C241.96 -258 250.045 -251.574 252.149 -242.498V-242.498C256.94 -221.829 286.37 -221.829 291.161 -242.498L291.7 -244.824C293.488 -252.538 300.361 -258 308.28 -258V-258C317.679 -258 325.299 -250.38 325.299 -240.981V25.6819V52.5248C325.299 57.7794 326.993 62.894 330.129 67.1099L346.813 89.537C349.95 93.7529 351.643 98.8675 351.643 104.122V154.351C351.643 161.625 345.746 167.523 338.471 167.523V167.523C331.196 167.523 325.299 173.42 325.299 180.695V284.928C325.299 298.424 314.359 309.364 300.863 309.364H24.4356C10.9402 309.364 0 298.424 0 284.928V-233.564Z" fill="#215CB8"/>
<path d="M300.863 307.837H24.4356C11.7836 307.837 1.52722 297.58 1.52722 284.928V-233.564C1.52722 -246.216 11.7837 -256.473 24.4356 -256.473H232.643C241.249 -256.473 248.718 -250.537 250.661 -242.153C255.818 -219.908 287.492 -219.908 292.649 -242.153L293.188 -244.479C294.816 -251.501 301.071 -256.473 308.28 -256.473C316.836 -256.473 323.772 -249.537 323.772 -240.981V25.6819V52.5248C323.772 58.1078 325.571 63.5421 328.904 68.0215L345.588 90.4485C348.528 94.4009 350.116 99.1959 350.116 104.122V154.351C350.116 160.782 344.903 165.996 338.471 165.996C330.353 165.996 323.772 172.577 323.772 180.695V284.928C323.772 297.58 313.515 307.837 300.863 307.837Z" stroke="black" stroke-width="3.05445"/>
</g>
</g>
<defs>
<filter id="filter0_b_11_86" x="-12.2178" y="-270.218" width="376.079" height="591.799" filterUnits="userSpaceOnUse" color-interpolation-filters="sRGB">
<feFlood flood-opacity="0" result="BackgroundImageFix"/>
<feGaussianBlur in="BackgroundImageFix" stdDeviation="6.1089"/>
<feComposite in2="SourceAlpha" operator="in" result="effect1_backgroundBlur_11_86"/>
<feBlend mode="normal" in="SourceGraphic" in2="effect1_backgroundBlur_11_86" result="shape"/>
</filter>
</defs>
</svg>
