<svg width="352" height="302" viewBox="0 0 352 302" fill="none" xmlns="http://www.w3.org/2000/svg">
<mask id="mask0_2_232" style="mask-type:alpha" maskUnits="userSpaceOnUse" x="0" y="0" width="352" height="302">
<rect width="352" height="302" fill="#D9D9D9"/>
</mask>
<g mask="url(#mask0_2_232)">
<g filter="url(#filter0_b_2_232)">
<path d="M0 -393.035C0 -406.53 10.9402 -417.471 24.4356 -417.471H231.564C241.405 -417.471 249.841 -410.437 251.609 -400.755V-400.755C255.681 -378.468 287.629 -378.468 291.701 -400.755L292.258 -403.808C293.704 -411.721 300.599 -417.471 308.643 -417.471V-417.471C317.842 -417.471 325.299 -410.014 325.299 -400.815V-247.841V-210.146C325.299 -205.801 326.457 -201.535 328.655 -197.787L348.288 -164.299C350.485 -160.551 351.643 -156.285 351.643 -151.941V-81.0297C351.643 -73.7548 345.746 -67.8574 338.471 -67.8574V-67.8574C331.196 -67.8574 325.299 -61.96 325.299 -54.6851V278.026C325.299 291.522 314.359 302.462 300.863 302.462H24.4356C10.9402 302.462 0 291.522 0 278.026V-393.035Z" fill="#215CB8"/>
<path d="M300.863 300.935H24.4356C11.7836 300.935 1.52722 290.678 1.52722 278.026V-393.035C1.52722 -405.687 11.7837 -415.943 24.4356 -415.943H231.564C240.668 -415.943 248.471 -409.436 250.107 -400.481C254.484 -376.523 288.827 -376.523 293.203 -400.481L293.761 -403.533C295.074 -410.721 301.336 -415.943 308.643 -415.943C316.998 -415.943 323.772 -409.17 323.772 -400.815V-247.84V-210.146C323.772 -205.53 325.002 -200.997 327.337 -197.015L346.97 -163.527C349.03 -160.013 350.116 -156.014 350.116 -151.941V-81.0297C350.116 -74.5983 344.903 -69.3846 338.471 -69.3846C330.353 -69.3846 323.772 -62.8034 323.772 -54.6851V278.026C323.772 290.678 313.515 300.935 300.863 300.935Z" stroke="black" stroke-width="3.05445"/>
</g>
</g>
<defs>
<filter id="filter0_b_2_232" x="-12.2178" y="-429.688" width="376.079" height="744.368" filterUnits="userSpaceOnUse" color-interpolation-filters="sRGB">
<feFlood flood-opacity="0" result="BackgroundImageFix"/>
<feGaussianBlur in="BackgroundImageFix" stdDeviation="6.1089"/>
<feComposite in2="SourceAlpha" operator="in" result="effect1_backgroundBlur_2_232"/>
<feBlend mode="normal" in="SourceGraphic" in2="effect1_backgroundBlur_2_232" result="shape"/>
</filter>
</defs>
</svg>
